<?xml version="1.0" encoding="UTF-8" standalone="no"?>
<svg
   height="265.9324"
   width="923.07629"
   viewBox="-7.937505 -3.811225 52.916664 7.6014617"
   version="1.1"
   id="svg266"
   sodipodi:docname="azure.svg"
   inkscape:version="1.2.2 (b0a8486, 2022-12-01)"
   xmlns:inkscape="http://www.inkscape.org/namespaces/inkscape"
   xmlns:sodipodi="http://sodipodi.sourceforge.net/DTD/sodipodi-0.dtd"
   xmlns="http://www.w3.org/2000/svg"
   xmlns:svg="http://www.w3.org/2000/svg">
  <defs
     id="defs270" />
  <sodipodi:namedview
     id="namedview268"
     pagecolor="#505050"
     bordercolor="#eeeeee"
     borderopacity="1"
     inkscape:showpageshadow="0"
     inkscape:pageopacity="0"
     inkscape:pagecheckerboard="0"
     inkscape:deskcolor="#505050"
     showgrid="false"
     inkscape:zoom="0.295"
     inkscape:cx="461.01695"
     inkscape:cy="132.20339"
     inkscape:window-width="1680"
     inkscape:window-height="936"
     inkscape:window-x="0"
     inkscape:window-y="25"
     inkscape:window-maximized="1"
     inkscape:current-layer="svg266" />
  <path
     d="m 1.167895,6.8044783 a 3735.905,3735.905 0 0 0 4.6413,-0.8214001 l 0.0436,-0.0093 -2.3874,-2.8397 c -1.313,-1.5618 -2.3873,-2.8456997 -2.3873,-2.8529997 0,-0.014 2.4651,-6.8024956 2.479,-6.8266956 0.0046,-0.008 1.6822,2.8882975 4.0666,7.02099555 2.2323,3.86899975 4.0727,7.05900015 4.0898,7.08890015 l 0.0311,0.0543 -7.5871,-0.001 -7.5872,-10e-4 z m 29.0959,-0.6868001 c -1.155,-0.074 -1.8266,-0.7316 -2.0046,-1.9626 -0.0474,-0.3274 -0.0476,-0.336 -0.0524,-2.4617 l -0.0047,-2.0574994 h 1.0223 l 0.004,1.9899994 c 0.0036,1.7937 0.0059,2.004 0.023,2.1301 0.0696,0.5121 0.2082,0.8565 0.444,1.1036 0.1888,0.1978 0.4098,0.3137 0.7157,0.3751 0.1444,0.029 0.555,0.029 0.6865,10e-5 0.3101,-0.0682 0.5587,-0.2032 0.778,-0.4224 0.25,-0.2498 0.4348,-0.6043 0.5243,-1.005 l 0.0301,-0.1352 0.0034,-2.0069 0.0033,-2.0068994 h 1.0437 v 6.3097994 h -1.0329 v -0.5005 c 0,-0.3401 -0.0037,-0.4994 -0.0116,-0.4967 -0.0064,0.0021 -0.033,0.0427 -0.059,0.0902 -0.178,0.3245 -0.4745,0.6214 -0.7994,0.8002 -0.3895,0.2143 -0.78,0.2906 -1.3137,0.2564 z m 11.7224,-0.005 c -0.4077,-0.0307 -0.837,-0.1709 -1.1878,-0.388 -0.7395,-0.4573 -1.177,-1.2113 -1.3052,-2.249 -0.0443,-0.359 -0.0496,-0.8414 -0.0126,-1.1465 0.0826,-0.6817 0.3505,-1.35099995 0.732,-1.8287998 0.0978,-0.12239995 0.3197,-0.34429985 0.4421,-0.4419998 a 2.7544,2.7544 0 0 1 1.1284,-0.53869975 c 0.2393,-0.0523 0.6608,-0.0768999 0.915,-0.0533 0.6388,0.0592 1.2242,0.35989985 1.622,0.83319965 0.4043,0.4809998 0.6265,1.1529997 0.6549,1.9803997 0.0044,0.1297 0.0055,0.357 0.0024,0.5052 l -0.0057,0.2695 -2.237,0.0028 -2.2371,0.0028 v 0.0999 c 0,0.3039001 0.0738,0.6500001 0.2016,0.9445001 0.1101,0.254 0.2997,0.5312999 0.455,0.6654999 0.3183,0.2752001 0.7078,0.4399 1.1341,0.4795 0.158,0.0147 0.561,-8e-4 0.741,-0.0285 0.514,-0.079 1.0025,-0.2804999 1.397,-0.5763 a 3.4082,3.4082 0 0 1 0.0988,-0.0723 c 0.0115,-0.0072 0.0143,0.0837 0.014,0.466 l -4e-4,0.4749 -0.1057,0.0654 c -0.4464,0.276 -0.9577,0.4533 -1.499,0.5196 -0.1617,0.0198 -0.7545,0.0287 -0.9478,0.0141 z m 1.947,-4.0055 c 0,-0.5091 -0.2146,-1.0746 -0.5182,-1.36579985 -0.2166,-0.20779995 -0.4785,-0.3347999 -0.7899,-0.38299985 -0.1473,-0.0228 -0.4577,-0.014 -0.613,0.0173 -0.3283,0.0664 -0.5998,0.2106999 -0.8367,0.4446998 -0.2492,0.2462999 -0.4361,0.5454999 -0.5536,0.8862999 -0.0423,0.1226 -0.0917,0.3238 -0.107,0.4358 l -0.0074,0.0533 h 3.4257 z m -30.3454,3.847 c 0.0026,-0.0078 0.7623,-2.0034 1.6881,-4.4348 l 1.6834,-4.4207984 h 1.0817 l 0.0449,0.1149999 c 0.1371,0.3516997 3.37,8.7449985 3.37,8.7493985 0,0.0028 -0.259,0.0052 -0.5754,0.0051 l -0.5754,-10e-5 -0.466,-1.2405 -0.466,-1.2406 h -3.752 l -0.0164,0.0421 c -0.009,0.0232 -0.208,0.5814 -0.4424,1.2404 l -0.426,1.1984 -0.5767,2e-4 c -0.4564,10e-5 -0.5756,-0.0028 -0.5718,-0.0139 z m 5.443,-3.414 c 0,-0.002 -0.3136,-0.852 -0.6969,-1.88899985 -0.717,-1.93999925 -0.757,-2.05669925 -0.8137,-2.36819925 -0.0265,-0.146 -0.04,-0.15 -0.0558,-0.0168 -0.0112,0.0952 -0.06,0.3084 -0.0978,0.4266 -0.0187,0.0587 -0.3415,0.9447997 -0.7174,1.96929925 -0.376,1.02439985 -0.6835,1.86679985 -0.6835,1.87209985 0,0.0053 0.6896,0.0096 1.5325,0.0096 0.8429,0 1.5325,-0.0016 1.5325,-0.0035 z m 2.7731,3.2664 v -0.1615 l 1.8692,-2.5695 1.8691,-2.5694998 -1.6923,-0.0057 -1.6923,-0.0056 -0.003,-0.4293998 -0.0029,-0.4294998 h 4.8954 v 0.29009985 l -1.8693,2.58349955 c -1.0282,1.421 -1.8694,2.586 -1.8694,2.5889 0,0.0029 0.8311,0.0053 1.8469,0.0053 h 1.8469 v 0.8645 h -5.1983 z m 13.7162,0.1541 c -0.0041,-0.0041 -0.0075,-1.4289 -0.0075,-3.1661 v -3.1586994 h 1.0217 v 0.6511997 c 0,0.35819985 0.0043,0.65119975 0.0097,0.65119975 0.0053,0 0.0301,-0.0585999 0.0552,-0.13029995 0.1149,-0.32829985 0.314,-0.63509975 0.5707,-0.87899965 0.2311,-0.2195999 0.4953,-0.35099985 0.8071,-0.4012998 0.0876,-0.014 0.1617,-0.0168 0.3368,-0.0122 0.22,0.0057 0.335,0.0218 0.4688,0.0654999 l 0.042,0.0138 v 1.0604996 l -0.1206,-0.0603999 c -0.2132,-0.1067 -0.4236,-0.149 -0.6765,-0.1358 -0.1646,0.0085 -0.2726,0.0297 -0.4042,0.079 a 1.2788,1.2788 0 0 0 -0.6437,0.52579975 c -0.2222,0.3544 -0.3806,0.8099 -0.4273,1.2286001 -0.0084,0.0751 -0.0133,0.6869999 -0.0153,1.8932999 l -0.003,1.7824 h -0.5032 c -0.2768,0 -0.5066,-0.0034 -0.5107,-0.0075 z m -43.4576,-0.0222 c 0,-0.004 1.1249,-1.9567 2.4998,-4.3394 l 2.4998,-4.3321986 2.9132,-2.4446979 c 1.6022,-1.3445988 2.9175,-2.4464978 2.9228,-2.4484978 0.0052,-0.002 -0.0158,0.051 -0.0469,0.1177999 -0.031,0.0669 -1.4545,3.1200973 -3.1633,6.78499515 l -3.107,6.66349925 -2.2592,0.0029 c -1.2425,0.0016 -2.2592,-4e-4 -2.2592,-0.0044 z"
     fill="#0089d6"
     id="path264" />
</svg>
